<svg width="1401px" height="602px" viewBox="0 0 1401 602" xmlns="http://www.w3.org/2000/svg" xmlns:xlink="http://www.w3.org/1999/xlink" style="display: block; letter-spacing: normal; word-spacing: normal; width: 1401px; height: 602px;"><rect x="0" y="0" width="1401" height="602" fill="white" transform="matrix(1, 0, 0, 1, 0, 0)"/><g clip-path="url(#mainClip599)"><g class="gojs-diagram" transform="matrix(3, 0, 0, 3, 1, 1)"><g transform="matrix(1, 0, 0, 1, 0, 82.11844202918326)" data-class-name="Node" data-key="Host"><path stroke="none" fill="#c28f04" d="M 5,0 L 43.25282796705794,0 C 45.49140421790397,0 48.25282796705794,2.761423749153968 48.25282796705794,5 L 48.25282796705794,30.600679529557937 C 48.25282796705794,32.83925578040397 45.49140421790397,35.60067952955794 43.25282796705794,35.60067952955794 L 5,35.60067952955794 C 2.761423749153968,35.60067952955794 0,32.83925578040397 0,30.600679529557937 L 0,5 C 0,2.761423749153968 2.761423749153968,0 5,0 z" transform="matrix(1, 0, 0, 1, 0, 0)"/><text x="0" y="10.558374023437501" style="font: 13px sans-serif" text-anchor="start" fill="black" transform="matrix(1, 0, 0, 1, 10.761423749153968, 10.761423749153966)">Host</text></g><g transform="matrix(1, 0, 0, 1, 93.2528279670579, 82.11844202918326)" data-class-name="Node" data-key="STLink"><path stroke="none" fill="#c28f04" d="M 5,0 L 56.98280843580794,0 C 59.22138468665397,0 61.98280843580794,2.761423749153968 61.98280843580794,5 L 61.98280843580794,30.600679529557937 C 61.98280843580794,32.83925578040397 59.22138468665397,35.60067952955794 56.98280843580794,35.60067952955794 L 5,35.60067952955794 C 2.761423749153968,35.60067952955794 0,32.83925578040397 0,30.600679529557937 L 0,5 C 0,2.761423749153968 2.761423749153968,0 5,0 z" transform="matrix(1, 0, 0, 1, 0, 0)"/><text x="0" y="10.558374023437501" style="font: 13px sans-serif" text-anchor="start" fill="black" transform="matrix(1, 0, 0, 1, 10.761423749153968, 10.761423749153966)">STLink</text></g><g transform="matrix(1, 0, 0, 1, 200.23563640286582, 0)" data-class-name="Group" data-key="STM32"><g transform="matrix(1, 0, 0, 1, 0, 0)"><path stroke="gray" fill="#c28f04" stroke-width="2" stroke-linecap="butt" stroke-linejoin="miter" stroke-miterlimit="10" d="M 0,0 L 263.9763590591159,0 L 263.9763590591159,177.6345209853854 L 0,177.6345209853854 z" transform="matrix(1, 0, 0, 1, 1, 1)"/></g><text x="0" y="15.152281951904298" style="font: Bold 14pt Sans-Serif" text-anchor="start" fill="black" transform="matrix(1, 0, 0, 1, 102.92228444899155, 179.6345209853854)">STM32</text></g><g transform="matrix(1, 0, 0, 1, 295.3801167926448, 11)" data-class-name="Node" data-key="Firmware" data-group="STM32"><path stroke="none" fill="#68BDF6" d="M 5,0 L 70.68739827955794,0 C 72.92597453040398,0 75.68739827955794,2.761423749153968 75.68739827955794,5 L 75.68739827955794,30.600679529557937 C 75.68739827955794,32.83925578040397 72.92597453040398,35.60067952955794 70.68739827955794,35.60067952955794 L 5,35.60067952955794 C 2.761423749153968,35.60067952955794 0,32.83925578040397 0,30.600679529557937 L 0,5 C 0,2.761423749153968 2.761423749153968,0 5,0 z" transform="matrix(1, 0, 0, 1, 0, 0)"/><text x="0" y="10.558374023437501" style="font: 13px sans-serif" text-anchor="start" fill="black" transform="matrix(1, 0, 0, 1, 10.761423749153975, 10.761423749153966)">Firmware</text></g><g transform="matrix(1, 0, 0, 1, 211.23563640286582, 96.60067952955792)" data-class-name="Group" data-key="Memory" data-group="STM32"><g transform="matrix(1, 0, 0, 1, 0, 0)"><path stroke="gray" fill="#68BDF6" stroke-width="2" stroke-linecap="butt" stroke-linejoin="miter" stroke-miterlimit="10" d="M 0,0 L 241.97635905911594,0 L 241.97635905911594,55.60067952955795 L 0,55.60067952955795 z" transform="matrix(1, 0, 0, 1, 1, 1)"/></g><text x="0" y="10.824871444702149" style="font: Bold 10pt Sans-Serif" text-anchor="start" fill="black" transform="matrix(1, 0, 0, 1, 96.43499502028062, 57.60067952955795)">Memory</text></g><g transform="matrix(1, 0, 0, 1, 222.23563640286582, 107.60067952955792)" data-class-name="Node" data-key="Up Channel" data-group="Memory"><path stroke="none" fill="#B0E57C" d="M 5,0 L 85.17909749830794,0 C 87.41767374915398,0 90.17909749830794,2.761423749153968 90.17909749830794,5 L 90.17909749830794,30.600679529557937 C 90.17909749830794,32.83925578040397 87.41767374915398,35.60067952955794 85.17909749830794,35.60067952955794 L 5,35.60067952955794 C 2.761423749153968,35.60067952955794 0,32.83925578040397 0,30.600679529557937 L 0,5 C 0,2.761423749153968 2.761423749153968,0 5,0 z" transform="matrix(1, 0, 0, 1, 0, 0)"/><text x="0" y="10.558374023437501" style="font: 13px sans-serif" text-anchor="start" fill="black" transform="matrix(1, 0, 0, 1, 10.761423749153975, 10.761423749153966)">Up Channel</text></g><g transform="matrix(1, 0, 0, 1, 337.4147339011738, 107.60067952955792)" data-class-name="Node" data-key="Down Channel" data-group="Memory"><path stroke="none" fill="#B0E57C" d="M 5,0 L 101.79726156080794,0 C 104.03583781165398,0 106.79726156080794,2.761423749153968 106.79726156080794,5 L 106.79726156080794,30.600679529557937 C 106.79726156080794,32.83925578040397 104.03583781165398,35.60067952955794 101.79726156080794,35.60067952955794 L 5,35.60067952955794 C 2.761423749153968,35.60067952955794 0,32.83925578040397 0,30.600679529557937 L 0,5 C 0,2.761423749153968 2.761423749153968,0 5,0 z" transform="matrix(1, 0, 0, 1, 0, 0)"/><text x="0" y="10.558374023437501" style="font: 13px sans-serif" text-anchor="start" fill="black" transform="matrix(1, 0, 0, 1, 10.761423749153975, 10.761423749153966)">Down Channel</text></g><g transform="matrix(1, 0, 0, 1, 47.25282796705794, 82.70220083082745)" data-class-name="Link" data-from-key="Host" data-to-key="STLink"><path stroke="#555" fill="none" stroke-width="2" stroke-linecap="butt" stroke-linejoin="miter" stroke-miterlimit="10" d="M 0,0 L 44.99999999999996,0" transform="matrix(1, 0, 0, 1, 1, 17.216580963134767)"/><path stroke="none" fill="#555" d="M 0,0 L 8,4 L 0,8 L 2,4 z" transform="matrix(1, 0, 0, 1, 37.49999999999996, 13.216580963134767)"/><text x="14.070030212402344" y="10.824871444702149" style="font: bold 10pt helvetica, arial, sans-serif" text-anchor="middle" fill="black" transform="matrix(1, 0, 0, 1, 9.429969787597642, 0)">USB</text></g><g transform="matrix(1, 0, 0, 1, 154.23563640286585, 82.70220083082745)" data-class-name="Link" data-from-key="STLink" data-to-key="STM32"><path stroke="#555" fill="none" stroke-width="2" stroke-linecap="butt" stroke-linejoin="miter" stroke-miterlimit="10" d="M 0,0 L 44.99999999999997,0" transform="matrix(1, 0, 0, 1, 1, 17.216580963134767)"/><path stroke="none" fill="#555" d="M 0,0 L 8,4 L 0,8 L 2,4 z" transform="matrix(1, 0, 0, 1, 37.49999999999997, 13.216580963134767)"/><text x="15.547317504882812" y="10.824871444702149" style="font: bold 10pt helvetica, arial, sans-serif" text-anchor="middle" fill="black" transform="matrix(1, 0, 0, 1, 7.9526824951171875, 0)">SWD</text></g><g transform="matrix(1, 0, 0, 1, 328.7238159324238, 45.60067952955794)" data-class-name="Link" data-group="STM32" data-from-key="Firmware" data-to-key="Memory"><path stroke="#555" fill="none" stroke-width="2" stroke-linecap="butt" stroke-linejoin="miter" stroke-miterlimit="10" d="M 0,0 L 0,49.999999999999986" transform="matrix(1, 0, 0, 1, 4.5, 1)"/><path stroke="none" fill="#555" d="M 0,0 L 8,4 L 0,8 L 2,4 z" transform="matrix(0, 1, -1, 0, 8.5, 42.499999999999986)"/><text x="13.702339172363281" y="10.824871444702149" style="font: bold 10pt helvetica, arial, sans-serif" text-anchor="middle" fill="black" transform="matrix(1, 0, 0, 1, 0.7976608276367188, 18.783419036865233)">data</text></g></g><g transform="matrix(3, 0, 0, 3, 1, 1)"/></g><clipPath id="mainClip599"><rect x="0" y="0" width="1401px" height="602px"/></clipPath></svg>